RBDS03runT25_grf
version=1
nRows=27
nColumns=19
inDegrees=no
endheader
time	ground_force_r_vx	ground_force_r_vy	ground_force_r_vz	ground_force_r_px	ground_force_r_py	ground_force_r_pz	ground_force_r_mx	ground_force_r_my	ground_force_r_mz	ground_force_l_vx	ground_force_l_vy	ground_force_l_vz	ground_force_l_px	ground_force_l_py	ground_force_l_pz	ground_force_l_mx	ground_force_l_my	ground_force_l_mz
     22.49800000	    -96.58232917	   1111.40058985	     12.57100441	      2.29093009	      0.00000000	      1.02806907	      0.00000000	     11.15773340	      0.00000000	      0.00000000	      0.00000000	      0.00000000	      0.00000000	      0.00000000	      0.00000000	      0.00000000	      0.00000000	      0.00000000
     22.49900000	    -99.56649134	   1122.92363174	     13.13306239	      2.29048290	      0.00000000	      1.02783391	      0.00000000	     11.34815380	      0.00000000	      0.00000000	      0.00000000	      0.00000000	      0.00000000	      0.00000000	      0.00000000	      0.00000000	      0.00000000	      0.00000000
     22.50000000	   -102.55065352	   1134.44667363	     13.69512037	      2.29003571	      0.00000000	      1.02759876	      0.00000000	     11.53857421	      0.00000000	      0.00000000	      0.00000000	      0.00000000	      0.00000000	      0.00000000	      0.00000000	      0.00000000	      0.00000000	      0.00000000
     22.50100000	   -105.29700833	   1145.22002912	     14.23817974	      2.28952324	      0.00000000	      1.02738350	      0.00000000	     11.71501237	      0.00000000	      0.00000000	      0.00000000	      0.00000000	      0.00000000	      0.00000000	      0.00000000	      0.00000000	      0.00000000	      0.00000000
     22.50200000	   -108.04336315	   1155.99338462	     14.78123911	      2.28901077	      0.00000000	      1.02716824	      0.00000000	     11.89145052	      0.00000000	      0.00000000	      0.00000000	      0.00000000	      0.00000000	      0.00000000	      0.00000000	      0.00000000	      0.00000000	      0.00000000
     22.50300000	   -110.78971796	   1166.76674011	     15.32429848	      2.28849830	      0.00000000	      1.02695298	      0.00000000	     12.06788868	      0.00000000	      0.00000000	      0.00000000	      0.00000000	      0.00000000	      0.00000000	      0.00000000	      0.00000000	      0.00000000	      0.00000000
     22.50400000	   -113.33507147	   1177.13385025	     15.84757840	      2.28793094	      0.00000000	      1.02675198	      0.00000000	     12.23552368	      0.00000000	      0.00000000	      0.00000000	      0.00000000	      0.00000000	      0.00000000	      0.00000000	      0.00000000	      0.00000000	      0.00000000
     22.50500000	   -115.77992433	   1187.29783771	     16.36096860	      2.28733614	      0.00000000	      1.02655811	      0.00000000	     12.39875711	      0.00000000	      0.00000000	      0.00000000	      0.00000000	      0.00000000	      0.00000000	      0.00000000	      0.00000000	      0.00000000	      0.00000000
     22.50600000	   -118.22477720	   1197.46182517	     16.87435880	      2.28674133	      0.00000000	      1.02636424	      0.00000000	     12.56199053	      0.00000000	      0.00000000	      0.00000000	      0.00000000	      0.00000000	      0.00000000	      0.00000000	      0.00000000	      0.00000000	      0.00000000
     22.50700000	   -120.55047590	   1207.46586229	     17.37445075	      2.28611413	      0.00000000	      1.02617790	      0.00000000	     12.72109180	      0.00000000	      0.00000000	      0.00000000	      0.00000000	      0.00000000	      0.00000000	      0.00000000	      0.00000000	      0.00000000	      0.00000000
     22.50800000	   -122.63786630	   1217.14999873	     17.84794621	      2.28542212	      0.00000000	      1.02600664	      0.00000000	     12.87192875	      0.00000000	      0.00000000	      0.00000000	      0.00000000	      0.00000000	      0.00000000	      0.00000000	      0.00000000	      0.00000000	      0.00000000
     22.50900000	   -124.72525671	   1226.83413517	     18.32144166	      2.28473012	      0.00000000	      1.02583538	      0.00000000	     13.02276570	      0.00000000	      0.00000000	      0.00000000	      0.00000000	      0.00000000	      0.00000000	      0.00000000	      0.00000000	      0.00000000	      0.00000000
     22.51000000	   -126.81264711	   1236.51827162	     18.79493711	      2.28403812	      0.00000000	      1.02566412	      0.00000000	     13.17360264	      0.00000000	      0.00000000	      0.00000000	      0.00000000	      0.00000000	      0.00000000	      0.00000000	      0.00000000	      0.00000000	      0.00000000
     22.51100000	   -128.49619819	   1245.83544531	     19.21906271	      2.28323678	      0.00000000	      1.02551638	      0.00000000	     13.31284734	      0.00000000	      0.00000000	      0.00000000	      0.00000000	      0.00000000	      0.00000000	      0.00000000	      0.00000000	      0.00000000	      0.00000000
     22.51200000	   -130.17974928	   1255.15261901	     19.64318830	      2.28243543	      0.00000000	      1.02536863	      0.00000000	     13.45209204	      0.00000000	      0.00000000	      0.00000000	      0.00000000	      0.00000000	      0.00000000	      0.00000000	      0.00000000	      0.00000000	      0.00000000
     22.51300000	   -131.86330037	   1264.46979270	     20.06731389	      2.28163409	      0.00000000	      1.02522089	      0.00000000	     13.59133674	      0.00000000	      0.00000000	      0.00000000	      0.00000000	      0.00000000	      0.00000000	      0.00000000	      0.00000000	      0.00000000	      0.00000000
     22.51400000	   -133.25395105	   1273.60342237	     20.45288526	      2.28075381	      0.00000000	      1.02508921	      0.00000000	     13.72336311	      0.00000000	      0.00000000	      0.00000000	      0.00000000	      0.00000000	      0.00000000	      0.00000000	      0.00000000	      0.00000000	      0.00000000
     22.51500000	   -134.49815152	   1282.64528001	     20.81917952	      2.27983406	      0.00000000	      1.02496555	      0.00000000	     13.85178032	      0.00000000	      0.00000000	      0.00000000	      0.00000000	      0.00000000	      0.00000000	      0.00000000	      0.00000000	      0.00000000	      0.00000000
     22.51600000	   -135.74235200	   1291.68713766	     21.18547378	      2.27891432	      0.00000000	      1.02484190	      0.00000000	     13.98019752	      0.00000000	      0.00000000	      0.00000000	      0.00000000	      0.00000000	      0.00000000	      0.00000000	      0.00000000	      0.00000000	      0.00000000
     22.51700000	   -136.83211205	   1300.65960981	     21.53008079	      2.27795319	      0.00000000	      1.02472634	      0.00000000	     14.10523560	      0.00000000	      0.00000000	      0.00000000	      0.00000000	      0.00000000	      0.00000000	      0.00000000	      0.00000000	      0.00000000	      0.00000000
     22.51800000	   -137.61299127	   1309.49331099	     21.83131331	      2.27690930	      0.00000000	      1.02462697	      0.00000000	     14.22351543	      0.00000000	      0.00000000	      0.00000000	      0.00000000	      0.00000000	      0.00000000	      0.00000000	      0.00000000	      0.00000000	      0.00000000
     22.51900000	   -138.39387050	   1318.32701217	     22.13254583	      2.27586540	      0.00000000	      1.02452760	      0.00000000	     14.34179526	      0.00000000	      0.00000000	      0.00000000	      0.00000000	      0.00000000	      0.00000000	      0.00000000	      0.00000000	      0.00000000	      0.00000000
     22.52000000	   -139.17474972	   1327.16071335	     22.43377835	      2.27482151	      0.00000000	      1.02442823	      0.00000000	     14.46007509	      0.00000000	      0.00000000	      0.00000000	      0.00000000	      0.00000000	      0.00000000	      0.00000000	      0.00000000	      0.00000000	      0.00000000
     22.52100000	   -139.47994452	   1335.82711383	     22.66412805	      2.27365108	      0.00000000	      1.02435298	      0.00000000	     14.56880057	      0.00000000	      0.00000000	      0.00000000	      0.00000000	      0.00000000	      0.00000000	      0.00000000	      0.00000000	      0.00000000	      0.00000000
     22.52200000	   -139.78513933	   1344.49351431	     22.89447776	      2.27248065	      0.00000000	      1.02427773	      0.00000000	     14.67752606	      0.00000000	      0.00000000	      0.00000000	      0.00000000	      0.00000000	      0.00000000	      0.00000000	      0.00000000	      0.00000000	      0.00000000
     22.52300000	   -140.09033414	   1353.15991479	     23.12482746	      2.27131022	      0.00000000	      1.02420248	      0.00000000	     14.78625154	      0.00000000	      0.00000000	      0.00000000	      0.00000000	      0.00000000	      0.00000000	      0.00000000	      0.00000000	      0.00000000	      0.00000000
     22.52400000	   -140.07756479	   1361.72420761	     23.30508076	      2.27005601	      0.00000000	      1.02414294	      0.00000000	     14.88890694	      0.00000000	      0.00000000	      0.00000000	      0.00000000	      0.00000000	      0.00000000	      0.00000000	      0.00000000	      0.00000000	      0.00000000
